# xmcd CD database file
#
# Track frame offsets:
#	150
#	20062
#	38637
#	59032
#	78367
#	94912
#	115500
#	136445
#	153070
#	175740
#	193835
#	215052
#
# Disc length: 3149 seconds
#
# Revision: 0
# Processed by: cddbd v1.5.1PL0 Copyright (c) Steve Scherf et al.
# Submitted via: CDex 1.51
#
DISCID=a20c4b0c
DTITLE=池田 政典 - ZERO POINT - MASANORI IKEDDA BEST SELECTION
DYEAR=1990
DGENRE=Pop
TTITLE0=SHADOW DANCER
TTITLE1=NIGHT OF SUMMER SIDE
TTITLE2=All or Nothing
TTITLE3=危険なトライアングル
TTITLE4=FREE TRAFFIC
TTITLE5=君だけ夏タイム
TTITLE6=FORMULA WIND
TTITLE7=Never
TTITLE8=MIDNIGHT ANGEL
TTITLE9=ハートブレイカーは踊れない
TTITLE10=Evening Blue
TTITLE11=明日へのセンタリング
EXTD=YEAR: 90/07/04
EXTT0=
EXTT1=
EXTT2=
EXTT3=
EXTT4=
EXTT5=
EXTT6=
EXTT7=
EXTT8=
EXTT9=
EXTT10=
EXTT11=
PLAYORDER=
